<svg width="360" height="491" viewBox="0 0 360 491" fill="none" xmlns="http://www.w3.org/2000/svg">
<g filter="url(#filter0_d_8_29271)">
<g clip-path="url(#clip0_8_29271)">
<rect x="15" y="25" width="330" height="461" rx="15" fill="#1E2133"/>
<g clip-path="url(#clip1_8_29271)">
<g opacity="0.7">
<path d="M330 285.226V255.5H180L330 285.226Z" fill="#FFB800"/>
<path d="M180 255.501L30 225.776V255.501H180Z" fill="#FFB800"/>
<path d="M180 255.5L30 159.129V196.235L180 255.5Z" fill="#FFB800"/>
<path d="M180 255.5L30 289.314V321.943L180 255.5Z" fill="#FFB800"/>
<path d="M180 255.501L221.771 40H180V255.501Z" fill="#FFB800"/>
<path d="M180 255.501L132.485 40H86.6361L180 255.501Z" fill="#FFB800"/>
<path d="M180 255.5L38.2146 42.244C33.3083 45.1199 30 50.4736 30 56.6195V103.83L180 255.5Z" fill="#FFB800"/>
<path d="M180 255.5L44.6436 470.897C45.2327 470.962 45.831 471 46.4372 471H96.7196L180 255.5Z" fill="#FFB800"/>
<path d="M227.515 471H273.364L180 255.5L227.515 471Z" fill="#FFB800"/>
<path d="M30 357.462V407.17L180 255.5L30 357.462Z" fill="#FFB800"/>
<path d="M180 255.5L321.785 468.757C326.692 465.881 330 460.527 330 454.381V407.17L180 255.5Z" fill="#FFB800"/>
<path d="M180 255.5L330 351.871V314.766L180 255.5Z" fill="#FFB800"/>
<path d="M180 255.501L315.356 40.1043C314.767 40.0397 314.169 40.0015 313.563 40.0015H263.28L180 255.501Z" fill="#FFB800"/>
<path d="M138.229 471H180V255.5L138.229 471Z" fill="#FFB800"/>
<path d="M180 255.5L330 153.539V103.831L180 255.5Z" fill="#FFB800"/>
<path d="M180 255.501L330 221.687V189.059L180 255.501Z" fill="#FFB800"/>
</g>
<g filter="url(#filter1_d_8_29271)">
<path fill-rule="evenodd" clip-rule="evenodd" d="M225.542 253.276C225.704 253.307 225.865 253.347 226.025 253.397C226.351 253.497 226.657 253.63 226.943 253.793L236.7 257.387C237.863 257.816 238.822 258.546 239.544 259.551L244.978 267.121L274.588 286.242C275.283 286.692 275.907 287.223 276.462 287.839C277.856 289.388 278.916 291.4 279.537 293.386C280.809 297.454 280.381 301.745 278.587 305.587C277.938 306.979 277.044 308.116 276.106 309.313C275.016 310.709 273.891 312.075 272.76 313.438C269.196 317.735 265.563 321.975 261.924 326.21C251.368 338.492 240.708 350.684 230.036 362.863C216.22 378.629 202.37 394.364 188.483 410.069L184.328 417.265L180.738 423.549C179.63 425.488 177.615 426.642 175.383 426.619C173.149 426.596 171.162 425.4 170.094 423.439L166.713 417.221L164.485 413.363C149.622 396.567 134.799 379.731 120.018 362.862C109.345 350.683 98.6847 338.491 88.1296 326.209C84.4915 321.974 80.8575 317.735 77.2934 313.437C76.1635 312.074 75.0371 310.708 73.9472 309.313C73.0112 308.115 72.1169 306.977 71.4671 305.586C69.6743 301.744 69.2458 297.453 70.5179 293.385C71.1393 291.4 72.1993 289.387 73.5936 287.838C74.1477 287.222 74.7717 286.691 75.468 286.242L106.964 265.902L111.524 259.551C112.246 258.545 113.205 257.815 114.367 257.387L123.872 253.886C124.202 253.681 124.561 253.516 124.948 253.397C125.168 253.329 125.389 253.278 125.61 253.245L130.611 251.402L132.618 238.909C132.707 238.352 132.848 237.808 133.037 237.281C129.527 231.995 125.845 226.011 123.542 220.04C121.482 219.087 119.683 217.702 118.204 215.924C115.706 212.922 114.517 209.258 114.066 205.428C113.857 203.655 113.811 201.876 113.806 200.092C113.804 199.607 113.871 198.882 113.813 198.422C113.47 196.241 113.06 194.07 112.693 191.892C112.406 190.187 112.128 188.479 111.923 186.764C105.436 183.945 99.1074 180.766 92.9151 177.349C83.2885 172.036 73.7742 166.16 65.3015 159.124C62.6849 156.951 60.1425 154.66 57.9145 152.084C53.7097 147.222 50.4676 141.014 52.758 134.513C56.2389 124.634 68.21 123.931 77.0246 124.393C83.34 124.723 89.6022 125.666 95.8203 126.785C104.691 128.381 113.479 130.399 122.221 132.582C123.057 132.791 123.896 132.986 124.738 133.171C128.566 122.727 133.534 112.075 140.029 103.184C148.456 91.6508 156.992 85.6315 171.601 85.0109C176.214 84.8154 180.078 87.2871 183.781 89.6923C184.483 90.1474 185.517 90.8945 186.351 91.3363C195.855 91.5368 204.638 94.3896 211.779 100.889C223.938 111.956 227.607 130.295 229.956 145.865C230.026 146.327 230.094 146.79 230.161 147.252C237.818 148.152 245.474 149.051 253.128 149.964C264.639 151.336 276.154 152.682 287.627 154.339C295.369 155.457 305.004 158.225 307.375 166.759C307.966 168.888 307.99 171.091 307.458 173.235C306.472 177.207 303.738 180.448 300.614 182.969C294.937 187.552 287.448 190.734 280.64 193.258C272.058 196.44 263.203 198.886 254.26 200.814C249.022 201.943 243.742 202.89 238.429 203.589C238.057 209.293 236.727 215.987 231.761 218.789C231.146 219.136 230.514 219.45 229.872 219.742C229.162 220.064 228.442 220.359 227.719 220.644C226.907 222.758 225.906 224.741 224.709 226.683C223.198 229.136 221.914 231.71 220.312 234.115C219.622 235.152 218.91 236.175 218.18 237.185C218.388 237.741 218.541 238.318 218.636 238.91L220.655 251.476L225.542 253.276Z" fill="white"/>
<path fill-rule="evenodd" clip-rule="evenodd" d="M213.845 236.906C214.45 237.621 214.867 238.504 215.025 239.489L217.38 254.141L217.542 254.305C217.744 254.326 217.945 254.373 218.15 254.449L235.436 260.818C235.914 260.993 236.278 261.269 236.574 261.683L242.413 269.815L272.604 289.313C273.031 289.589 273.403 289.906 273.744 290.285C274.782 291.436 275.586 293.001 276.047 294.475C277.047 297.674 276.681 301.025 275.274 304.04C274.766 305.13 273.964 306.117 273.226 307.061C272.158 308.428 271.054 309.769 269.946 311.103C266.396 315.383 262.777 319.607 259.151 323.825C248.603 336.098 237.951 348.281 227.285 360.452C213.393 376.307 199.465 392.13 185.5 407.921L181.153 415.451L177.562 421.736C177.112 422.523 176.329 422.972 175.421 422.964C174.513 422.954 173.739 422.488 173.305 421.691L169.901 415.434L167.466 411.218C152.525 394.332 137.626 377.411 122.765 360.454C112.1 348.283 101.448 336.1 90.9002 323.827C87.2762 319.609 83.6555 315.385 80.1047 311.105C78.9973 309.77 77.8933 308.43 76.8251 307.063C76.0871 306.119 75.286 305.131 74.7768 304.041C73.3708 301.026 73.0039 297.675 74.0039 294.477C74.4656 293.003 75.2702 291.438 76.3076 290.287C76.6487 289.907 77.0198 289.591 77.4482 289.315L109.528 268.598L114.491 261.685C114.787 261.271 115.151 260.995 115.629 260.819L132.915 254.451C133.228 254.335 133.537 254.283 133.846 254.296L136.224 239.49C136.372 238.571 136.746 237.74 137.288 237.051C137.032 236.682 136.78 236.312 136.532 235.94C133.155 230.889 128.625 223.711 126.41 217.247C124.378 216.587 122.527 215.41 121.011 213.588C118.979 211.146 118.06 208.112 117.694 205.004C117.501 203.369 117.464 201.728 117.459 200.084C117.457 199.421 117.523 198.502 117.421 197.857C117.076 195.663 116.664 193.48 116.297 191.289C115.905 188.961 115.525 186.614 115.345 184.256C115.206 184.197 115.068 184.139 114.929 184.08C108.006 181.147 101.261 177.785 94.6798 174.152C85.3103 168.981 75.8775 163.161 67.6344 156.314C62.1476 151.758 53.3846 143.734 56.2033 135.732C58.9937 127.812 69.914 127.686 76.8309 128.048C82.9824 128.37 89.1132 129.299 95.1698 130.389C103.959 131.969 112.669 133.971 121.333 136.134C123.244 136.612 125.174 137.02 127.112 137.39C131.139 125.813 136.458 114.271 142.978 105.346C150.736 94.7282 158.269 89.2415 171.753 88.6682C175.403 88.5135 178.85 90.8563 181.786 92.7623C182.6 93.2906 184.577 94.6359 185.534 94.9853C194.423 95.0361 202.644 97.5245 209.315 103.596C220.699 113.958 224.137 131.834 226.337 146.413C226.546 147.794 226.743 149.177 226.937 150.559C235.523 151.567 244.109 152.574 252.693 153.598C264.173 154.966 275.657 156.308 287.101 157.961C293.185 158.84 301.955 160.922 303.849 167.741C304.272 169.264 304.287 170.822 303.906 172.356C303.123 175.511 300.787 178.131 298.314 180.127C293.043 184.382 285.697 187.486 279.367 189.833C270.959 192.95 262.249 195.354 253.487 197.243C247.348 198.566 241.142 199.636 234.899 200.338C234.788 205.936 234.088 213.279 229.962 215.608C229.44 215.903 228.901 216.168 228.355 216.416C227.47 216.818 226.569 217.172 225.662 217.523C225.405 217.622 225.072 217.739 224.763 217.864C224.728 218.07 224.687 218.277 224.604 218.514C223.818 220.754 222.842 222.743 221.594 224.766C220.106 227.179 218.84 229.728 217.266 232.09C216.169 233.737 215.023 235.338 213.845 236.906Z" fill="#1E2133"/>
<path fill-rule="evenodd" clip-rule="evenodd" d="M207.5 223.708H143.753C142.635 223.708 141.723 224.62 141.723 225.739V285.188C141.723 286.307 142.636 287.218 143.753 287.218H207.5C208.619 287.218 209.531 286.306 209.531 285.188V225.739C209.531 224.62 208.618 223.708 207.5 223.708Z" fill="#1E2133"/>
<path fill-rule="evenodd" clip-rule="evenodd" d="M208.467 225.738H188.451C186.301 226.888 184.628 228.358 183.686 230.24C179.172 239.27 170.681 257.649 170.681 257.649L160.466 259.589L177.022 278.395L204.109 277.75C204.109 277.75 205.407 276.712 207.499 274.991L208.467 225.738Z" fill="#1E2133"/>
<path fill-rule="evenodd" clip-rule="evenodd" d="M219.45 177.362L218.543 174.787C218.206 173.828 217.232 173.272 216.235 173.469C215.239 173.665 214.548 174.55 214.599 175.565C214.84 180.311 215.102 185.058 215.391 189.802C215.587 193.05 215.793 196.304 216.056 199.548C216.144 200.647 216.237 201.753 216.37 202.848C216.511 204.023 216.641 205.373 218.036 205.807C219.121 206.146 221.086 206.058 222.19 205.878C223.266 205.703 224.37 205.357 225.244 204.687C228.309 202.335 230.534 198.974 231.508 195.236C232.182 192.647 232.416 189.406 232.409 186.738C232.399 183.306 231.983 177.309 228.357 175.656C227.695 175.354 226.983 175.226 226.257 175.262C223.85 175.378 221.529 176.09 219.476 177.347C219.466 177.352 219.458 177.357 219.45 177.362Z" fill="#1E2133"/>
<path fill-rule="evenodd" clip-rule="evenodd" d="M130.91 176.987L132.191 171.939L138.701 172.874L138.58 176.161C138.36 182.107 138.117 188.054 137.851 193.999C137.669 198.073 137.482 202.149 137.24 206.22C137.157 207.601 137.072 208.987 136.95 210.365C136.786 212.211 136.623 214.076 134.525 214.984L134.12 215.159L133.684 215.232C129.673 215.911 125.618 215.306 122.888 212.025C121.17 209.962 120.427 207.336 120.118 204.715C119.936 203.172 119.905 201.625 119.899 200.072C119.897 199.307 119.95 198.216 119.833 197.474C119.486 195.272 119.073 193.079 118.703 190.88C118.253 188.2 117.799 185.387 117.699 182.67C117.596 179.887 117.889 176.481 120.705 175.044C121.479 174.649 122.344 174.482 123.21 174.541C125.65 174.706 128.403 175.698 130.91 176.987Z" fill="#1E2133"/>
<path fill-rule="evenodd" clip-rule="evenodd" d="M134.925 176.026L133.227 182.723C133.227 182.723 127.594 178.501 122.964 178.19C119.596 177.962 122.325 189.805 123.444 196.905C124.025 200.603 121.473 213.589 133.073 211.627C133.614 211.394 134.925 176.026 134.925 176.026Z" fill="white"/>
<path fill-rule="evenodd" clip-rule="evenodd" d="M128.402 180.353C128.402 188.633 127.345 199.025 127.345 207.305C127.345 209.188 127.424 211.06 127.764 212.915C128.683 217.918 132.266 225.169 138.56 234.582C144.327 243.208 153.806 253.173 156.524 257.058C158.09 259.292 161.516 262.045 164.275 262.437C167.966 262.962 171.897 263.062 175.627 263.062C179.354 263.062 183.285 262.962 186.978 262.437C189.883 262.025 192.908 259.391 194.665 257.146C194.688 257.116 194.708 257.09 194.729 257.059C200.99 248.105 208.673 240.596 215.24 230.736C216.691 228.556 218.147 225.713 219.521 223.484C220.764 221.469 221.59 219.748 222.307 217.704C222.484 217.202 222.394 216.515 222.822 216.129C223.341 215.658 226.488 214.768 228.767 213.482C232.71 211.256 232.483 200.498 232.483 196.335C232.483 188.056 222.851 188.633 222.851 180.353C222.999 178.667 223.009 176.973 222.868 175.286C222.779 174.231 221.902 173.426 220.844 173.426H130.41C129.351 173.426 128.475 174.231 128.385 175.287C128.243 176.973 128.254 178.667 128.402 180.353Z" fill="#1E2133"/>
<path fill-rule="evenodd" clip-rule="evenodd" d="M130.433 180.263C130.433 180.263 130.433 203.455 130.433 209.5C130.433 215.544 131.274 218.565 136.304 226.724C141.335 234.884 158.189 254.676 158.189 254.676C158.189 254.676 161.375 258.755 164.562 259.208C167.748 259.662 171.849 259.812 175.628 259.812C179.403 259.812 183.506 259.662 186.692 259.208C189.879 258.755 193.066 254.676 193.066 254.676C193.066 254.676 209.919 234.884 214.95 226.724C218.193 221.466 219.368 217.961 220.054 214.396C220.907 209.964 220.821 205.528 220.821 198.604C220.821 190.079 220.821 180.264 220.821 180.264C220.975 178.57 220.972 176.973 220.845 175.457H175.628H130.409C130.281 176.972 130.279 178.569 130.433 180.263Z" fill="white"/>
<path fill-rule="evenodd" clip-rule="evenodd" d="M128.972 182.24L130.433 195.503C131.758 198.637 133.446 201.968 135.601 205.367C145.533 208.752 158.61 202.834 161.333 206.709C163.29 209.495 156.926 216.374 156.926 216.374L175.156 203.648C175.156 208.92 175.156 214.194 175.156 219.468C175.156 222.322 175.339 225.192 171.146 223.582C169.961 223.127 168.235 222.591 167.332 222.91C165.87 223.426 164.537 224.457 165.998 224.715C167.461 224.974 172.061 225.232 172.061 225.232C172.061 225.232 174.468 225.146 174.468 228.843C174.468 232.541 174.468 233.573 174.468 233.573C174.468 233.573 173.351 235.636 171.631 235.636C169.912 235.636 160.194 235.636 160.194 235.636C160.194 235.636 158.303 234.433 157.958 233.917C157.614 233.4 158.217 236.497 159.42 237.872C160.625 239.247 161.226 239.247 161.226 239.247C161.226 239.247 160.022 237.012 161.226 237.012C162.43 237.012 171.888 237.012 171.888 237.012C171.888 237.012 176.597 237.636 177.305 240.279C178.013 242.923 174.695 243.49 171.743 243.49C168.793 243.49 166.557 244.835 171.115 247.157C175.671 249.479 179.025 248.103 179.025 248.103C179.025 248.103 179.978 255.985 177.478 257.724C174.978 259.464 173.467 259.317 172.582 259.941C173.605 259.964 173.68 262.984 174.68 262.984C181.211 262.984 186.344 261.521 190.783 258.076C194.677 255.055 198.041 250.311 201.35 246.375C206.754 233.407 206.756 232.924 206.756 232.924C206.756 232.924 213.979 227.764 216.387 216.758C218.795 205.751 218.451 200.247 218.451 200.247L221.83 199.325C221.423 190.595 220.819 180.262 220.819 180.262C220.894 179.431 220.933 178.622 220.936 177.836L211.593 175.456H175.626H130.409C130.281 176.972 128.817 180.547 128.972 182.24Z" fill="#1E2133"/>
<path fill-rule="evenodd" clip-rule="evenodd" d="M159.069 275.614L164.3 294.138C164.533 294.963 165.363 295.464 166.203 295.286C166.912 295.133 167.628 295.02 168.345 294.926C170.67 294.627 173.234 294.5 175.586 294.559C175.614 294.559 175.639 294.559 175.667 294.559C178.019 294.501 180.581 294.627 182.907 294.926C183.625 295.02 184.343 295.133 185.05 295.286C185.889 295.464 186.719 294.963 186.952 294.138L192.183 275.614C192.427 274.754 191.923 273.853 191.062 273.61C189.584 273.192 187.991 272.878 186.481 272.614C182.911 271.989 179.251 271.645 175.626 271.645C172 271.645 168.34 271.989 164.769 272.614C163.261 272.878 161.667 273.192 160.188 273.61C159.329 273.853 158.826 274.754 159.069 275.614Z" fill="#1E2133"/>
<path fill-rule="evenodd" clip-rule="evenodd" d="M190.497 274.969C192.242 277.845 194.039 280.703 195.874 283.518C197.127 285.442 198.408 287.373 199.769 289.222C200.479 290.189 201.891 292.144 202.993 292.634C204.481 293.296 205.983 292.956 207.093 291.792C207.537 291.327 207.951 290.682 208.184 290.08L219.501 261.11C219.741 260.498 219.604 259.841 219.141 259.373L208.653 248.812C208.18 248.335 207.502 248.198 206.88 248.455C206.259 248.71 205.875 249.285 205.875 249.956V254.682L188.088 268.913C186.88 269.677 186.227 271.296 186.071 272.646C185.972 273.503 186.558 274.287 187.408 274.434L190.497 274.969Z" fill="#1E2133"/>
<path fill-rule="evenodd" clip-rule="evenodd" d="M132.166 189.933H128.733C128.09 189.933 127.565 190.458 127.565 191.101V194.76C127.565 195.404 128.09 195.929 128.733 195.929H132.166C132.81 195.929 133.335 195.404 133.335 194.76V191.101C133.335 190.458 132.81 189.933 132.166 189.933Z" fill="#1E2133"/>
<path fill-rule="evenodd" clip-rule="evenodd" d="M149.612 173.872C139.086 173.872 130.552 182.405 130.552 192.931C130.552 203.457 139.086 211.991 149.612 211.991C160.138 211.991 168.67 203.457 168.67 192.931C168.671 182.405 160.138 173.872 149.612 173.872Z" fill="#1E2133"/>
<path fill-rule="evenodd" clip-rule="evenodd" d="M149.612 206.05C142.366 206.05 136.492 200.176 136.492 192.931C136.492 185.685 142.366 179.811 149.612 179.811C156.857 179.811 162.732 185.685 162.732 192.931C162.732 200.176 156.857 206.05 149.612 206.05Z" fill="#1E2133"/>
<path fill-rule="evenodd" clip-rule="evenodd" d="M143.847 207.972C142.468 207.531 141.187 206.868 140.049 206.025L154.235 191.84C155.028 191.047 156.313 191.047 157.107 191.84C157.9 192.633 157.9 193.919 157.107 194.712L143.847 207.972ZM138.393 204.572L150.691 192.274C151.088 191.877 151.088 191.235 150.691 190.837C150.294 190.44 149.652 190.44 149.255 190.837L137.095 202.997C137.488 203.556 137.922 204.082 138.393 204.572Z" fill="white"/>
<path fill-rule="evenodd" clip-rule="evenodd" d="M149.612 173.872C140.733 173.872 133.274 179.942 131.155 188.157C136.795 190.726 142.735 192.809 148.63 194.561C154.864 196.414 161.224 197.937 167.622 199.178C168.301 197.22 168.67 195.119 168.67 192.931C168.671 182.405 160.139 173.872 149.612 173.872Z" fill="#1E2133"/>
<path fill-rule="evenodd" clip-rule="evenodd" d="M120.745 138.495C125.14 139.592 129.769 140.36 134.238 141.092C141 142.201 147.792 143.168 154.581 144.096C171.854 146.457 189.177 148.542 206.489 150.6C221.794 152.419 237.103 154.19 252.406 156.015C263.852 157.38 275.347 158.723 286.754 160.37C291.681 161.082 299.948 162.794 301.503 168.39C302.617 172.401 299.688 175.883 296.785 178.227C291.822 182.234 284.472 185.338 278.522 187.544C270.26 190.607 261.585 193.001 252.976 194.857C246.197 196.318 239.295 197.473 232.391 198.148C223.335 199.033 214.086 199.115 204.996 198.798C194.775 198.441 184.538 197.546 174.399 196.21C163.838 194.819 153.281 192.939 142.924 190.436C133.796 188.231 124.537 185.499 115.883 181.833C109.055 178.939 102.352 175.598 95.8606 172.016C86.7531 166.99 77.2047 161.09 69.1945 154.437C64.7394 150.737 56.1602 143.196 58.5047 136.54C60.8075 130.003 71.1738 130.19 76.7055 130.479C82.7147 130.794 88.8238 131.72 94.7407 132.785C103.464 134.354 112.147 136.349 120.745 138.495Z" fill="#1E2133"/>
<path fill-rule="evenodd" clip-rule="evenodd" d="M119.859 142.043C88.5925 134.235 72.0989 132.755 65.4108 134.98C84.9835 167.194 142.092 184.226 177.89 188.717C210.392 192.795 269.85 191.119 296.679 167.489C294.596 165.708 290.477 164.602 286.232 163.988C251.098 158.914 144.122 148.102 119.859 142.043ZM63.0364 136.24C83.2738 169.266 140.844 186.262 177.659 190.61C210.895 194.534 268.85 193.342 295.463 170.549C296.32 169.813 297.017 169.182 297.631 168.578C298.679 170.303 298.017 172.535 294.489 175.383C284.347 183.571 255.205 192.245 232.036 194.509C199.337 197.706 147.027 191.058 117.31 178.467C90.7839 167.227 54.5196 143.552 63.0364 136.24Z" fill="white"/>
<path fill-rule="evenodd" clip-rule="evenodd" d="M136.691 172.692C134.671 172.226 132.368 171.079 130.702 169.912C126.629 167.06 124.212 163.891 123.682 158.939L123.624 158.395L123.746 157.861C127.568 141.318 134.883 120.56 144.948 106.781C152.229 96.8145 159.087 91.643 171.858 91.1006C174.798 90.9766 178.075 93.2545 180.462 94.8036C181.32 95.3619 184.315 97.3536 185.257 97.4193C193.643 97.4193 201.392 99.6756 207.675 105.396C218.54 115.285 221.833 132.883 223.928 146.774C225.13 154.742 226.011 162.819 227.53 170.729L227.588 171.033V171.392L227.586 171.435C227.531 173.548 226.53 175.831 225.277 177.491C222.19 181.576 217.04 182.371 212.141 183.02C209.845 183.324 207.371 183.309 205.058 183.24C201.914 183.148 198.761 182.91 195.629 182.62C187.937 181.908 180.234 180.861 172.6 179.687C165.732 178.63 158.871 177.452 152.05 176.123C146.942 175.127 141.713 174.067 136.691 172.692Z" fill="#1E2133"/>
<path fill-rule="evenodd" clip-rule="evenodd" d="M185.257 100.668C181.773 100.668 175.348 94.204 171.996 94.3471C159.866 94.8621 153.959 99.9562 147.573 108.698C137.559 122.405 130.382 143.576 126.913 158.593C127.963 168.4 138.512 164.15 138.512 164.15C153.902 168.376 199.117 177.26 211.541 175.613C223.967 173.967 224.332 171.583 224.338 171.348V171.343C218.909 143.057 220.378 100.668 185.257 100.668Z" fill="white"/>
<path fill-rule="evenodd" clip-rule="evenodd" d="M185.257 100.668C181.773 100.668 175.348 94.204 171.996 94.3471C168.391 94.5002 165.334 95.0576 162.653 95.996C166.477 95.6791 168.211 96.7748 177.993 105.554C191.408 117.593 197.943 113.122 197.943 133.072C197.943 153.021 205.167 167.124 171.803 162.308C138.438 157.493 138.093 157.149 138.093 157.149C138.093 157.149 203.981 183.678 223.562 166.95C218.966 138.879 218.602 100.668 185.257 100.668Z" fill="#E8A16B"/>
<path fill-rule="evenodd" clip-rule="evenodd" d="M133.065 148.392C136.35 149.218 140.904 150.173 146.215 151.165C156.524 153.09 169.691 155.159 182.003 156.7C196.509 158.517 209.829 159.604 215.893 158.868C220.272 158.337 223.289 157.205 225.368 155.898V171.74C225.364 171.893 225.283 172.913 221.891 175.646C221.074 176.306 220.062 176.938 218.812 177.493C218.464 177.646 218.098 177.795 217.713 177.936C216.261 178.467 214.532 178.898 212.477 179.17C197.439 181.163 153.648 173.353 136.676 168.694C136.676 168.694 126.958 168.73 125.886 158.716C124.336 153.883 127.228 145.848 128.108 146.369C130.718 147.915 133.065 148.392 133.065 148.392Z" fill="#1E2133"/>
<path fill-rule="evenodd" clip-rule="evenodd" d="M212.633 253.826L211.825 254.313C211.825 254.313 210.644 253.476 209.529 254.605C208.415 255.734 191.502 273.495 191.502 273.495L191.029 274.303L187.428 273.309C187.428 273.309 186.649 271.293 188.664 269.815C190.68 268.338 206.749 255.493 206.749 255.493L207.125 249.259L208.147 249.42L212.633 253.826Z" fill="#1E2133"/>
<path fill-rule="evenodd" clip-rule="evenodd" d="M145.967 163.149L142.993 173.25C142.993 173.25 118.621 171.104 105.508 150.724C127.674 164.708 136.358 162.821 145.967 163.149Z" fill="#1E2133"/>
<path fill-rule="evenodd" clip-rule="evenodd" d="M208.542 183.027C208.542 183.027 247.317 181.422 252.605 172.416C252.605 172.416 236.31 174.866 234.483 173.684C232.656 172.501 229.108 154.121 229.108 154.121H224.339L208.542 183.027Z" fill="#1E2133"/>
<path fill-rule="evenodd" clip-rule="evenodd" d="M126.098 204.122C126.287 201.522 126.359 199.326 128.163 198.214C124.918 195.114 126.213 193.621 128.042 189.408L128.448 189.954C127.205 186.777 126.591 185.202 124.184 183.509C124.206 183.483 124.222 183.477 124.22 183.444C123.805 183.919 124.563 187.849 124.636 188.835C123.809 187.606 122.201 184.229 123.091 182.591C125.077 178.929 129.997 187.936 130.457 188.899C129.129 193.856 126.314 193.727 130.196 197.832L130.278 199.666C128.011 200.146 127.215 202.044 126.098 204.122Z" fill="#1E2133"/>
<path fill-rule="evenodd" clip-rule="evenodd" d="M229.285 208.072C229.285 206.402 230.149 201.644 229.867 200.293C229.639 199.202 228.479 199.337 228.008 199.855C226.526 201.482 228.359 206.162 226.362 208.157C219.17 215.352 229.285 211.105 229.285 208.072Z" fill="#E8A16B"/>
<path fill-rule="evenodd" clip-rule="evenodd" d="M175.028 403.673L208.425 334.188L218.04 262.494C218.193 261.358 218.859 260.454 219.901 259.975C220.941 259.495 222.062 259.574 223.024 260.196L271.282 291.36C271.535 291.523 271.732 291.691 271.934 291.916C272.731 292.8 273.372 294.082 273.722 295.203C274.541 297.821 274.219 300.542 273.067 303.009C272.676 303.848 271.88 304.826 271.308 305.56C270.255 306.906 269.164 308.23 268.072 309.546C264.532 313.815 260.918 318.03 257.304 322.237C246.763 334.502 236.113 346.682 225.455 358.846C209.534 377.014 193.564 395.146 177.549 413.231C177.434 413.372 177.306 413.502 177.166 413.625C176.562 414.156 175.799 414.432 175.029 414.431C174.259 414.432 173.497 414.156 172.893 413.625C172.751 413.502 172.624 413.372 172.509 413.231C156.493 395.146 140.524 377.014 124.603 358.846C113.945 346.682 103.295 334.502 92.7532 322.237C89.1392 318.03 85.5268 313.815 81.986 309.546C80.8936 308.23 79.8029 306.906 78.7505 305.56C78.1773 304.826 77.3819 303.847 76.9909 303.009C75.8394 300.542 75.5175 297.821 76.3353 295.203C76.6864 294.081 77.327 292.8 78.1232 291.916C78.3245 291.691 78.5225 291.523 78.7746 291.36L127.033 260.196C127.995 259.574 129.117 259.495 130.157 259.975C131.197 260.454 131.865 261.358 132.017 262.494L141.633 334.188L175.028 403.673Z" fill="#1E2133"/>
<path fill-rule="evenodd" clip-rule="evenodd" d="M128.793 262.927L80.5363 294.092C80.5363 294.092 77.8208 297.109 79.9332 301.635C82.0455 306.16 175.027 411.176 175.027 411.176L138.477 335.132L128.793 262.927Z" fill="white"/>
<path fill-rule="evenodd" clip-rule="evenodd" d="M221.261 262.927L269.518 294.092C269.518 294.092 272.234 297.109 270.122 301.635C268.01 306.16 175.028 411.176 175.028 411.176L211.579 335.132L221.261 262.927Z" fill="#1E2133"/>
<path fill-rule="evenodd" clip-rule="evenodd" d="M217.307 256.736L234.594 263.106L257.637 295.199L230.352 298.534L242.709 305.649L179.038 414.241L175.448 420.525L172.029 414.241L107.22 305.649L120.716 298.534L93.4309 295.199L116.473 263.106L133.761 256.736L168.277 269.118L217.307 256.736Z" fill="#1E2133"/>
<path fill-rule="evenodd" clip-rule="evenodd" d="M131.603 260.994L118.532 265.81L99.2704 292.638L130.227 296.422L113.717 306.742L175.534 413.812L131.603 260.994Z" fill="white"/>
<path fill-rule="evenodd" clip-rule="evenodd" d="M219.464 260.994L232.535 265.81L251.797 292.638L220.841 296.422L237.35 306.742L175.534 413.812L219.464 260.994Z" fill="#E8A16B"/>
<path fill-rule="evenodd" clip-rule="evenodd" d="M157.833 274.738L146.637 295.648C146.046 296.751 144.864 297.324 143.632 297.104C142.4 296.886 141.488 295.94 141.314 294.7L136.017 256.959C135.975 256.664 135.978 256.406 136.026 256.112L138.634 239.875C138.844 238.574 139.873 237.612 141.186 237.494C142.499 237.375 143.685 238.137 144.123 239.38L147.056 247.688L166.011 271.039C166.77 271.974 166.867 273.217 166.264 274.258C165.659 275.299 164.533 275.833 163.345 275.638L157.833 274.738Z" fill="#1E2133"/>
<path fill-rule="evenodd" clip-rule="evenodd" d="M163.803 272.833C154.723 261.649 146.225 253.886 141.441 240.326C140.572 245.739 139.702 251.151 138.832 256.564C140.598 269.145 142.365 281.725 144.13 294.305C148.182 286.738 152.234 279.171 156.286 271.604C158.793 272.013 161.298 272.423 163.803 272.833Z" fill="white"/>
<path fill-rule="evenodd" clip-rule="evenodd" d="M204.197 247.689L207.13 239.38C207.568 238.138 208.754 237.376 210.067 237.494C211.379 237.613 212.41 238.574 212.619 239.876L215.228 256.113C215.275 256.407 215.277 256.664 215.236 256.96L209.94 294.701C209.765 295.94 208.853 296.886 207.621 297.105C206.389 297.325 205.207 296.752 204.616 295.648L193.419 274.739L187.909 275.641C186.72 275.834 185.594 275.302 184.99 274.26C184.385 273.22 184.484 271.977 185.242 271.041L204.197 247.689Z" fill="#1E2133"/>
<path fill-rule="evenodd" clip-rule="evenodd" d="M187.449 272.833L206.715 249.1L209.811 240.326L212.42 256.563L207.122 294.305L194.966 271.603L187.449 272.833Z" fill="#E8A16B"/>
<path fill-rule="evenodd" clip-rule="evenodd" d="M180.167 93.742C184.842 98.7562 189.833 104.023 196.825 109.088C189.272 106.369 182.997 100.869 176.679 96.0582C176.181 95.6646 176.098 94.9425 176.491 94.4458C176.885 93.9483 179.67 93.3485 180.167 93.742Z" fill="#1E2133"/>
<path fill-rule="evenodd" clip-rule="evenodd" d="M190.543 333.078L175.638 374.668L160.524 332.801L166.871 293.899H184.086L190.543 333.078Z" fill="#1E2133"/>
<path fill-rule="evenodd" clip-rule="evenodd" d="M187.2 332.774L181.329 297.149H175.481H169.634L163.867 332.492L175.627 378.824L187.2 332.774Z" fill="#AD6327"/>
<path fill-rule="evenodd" clip-rule="evenodd" d="M185.983 283.516L181.473 293.826H169.779C168.157 290.118 166.535 286.41 164.912 282.702C162.403 276.969 164.77 277.315 170.599 277.315C176.216 277.315 173.752 277.315 179.369 277.315C185.86 277.315 188.8 277.077 185.983 283.516Z" fill="#AD6327"/>
<path fill-rule="evenodd" clip-rule="evenodd" d="M162.603 264.469C167.934 269.629 168.794 272.036 175.674 271.52C178.541 271.305 181.891 272.694 185.725 269.274C191.086 264.493 197.858 254.494 197.858 254.494C197.858 254.494 191.613 262.307 183.848 266.111C178.036 268.959 168.063 267.366 162.603 264.469Z" fill="white"/>
<path fill-rule="evenodd" clip-rule="evenodd" d="M229.692 157.016C230.776 162.242 233.112 172.797 234.483 173.683C236.31 174.865 252.605 172.415 252.605 172.415C250.298 176.343 241.625 178.863 232.575 180.457C233.236 181.204 233.076 182.149 232.217 183.17C231.163 184.427 229.052 185.799 226.112 187.059C224.691 187.668 223.077 188.251 221.295 188.784C221.138 188.831 220.979 188.877 220.82 188.923C219.152 189.404 217.344 189.839 215.415 190.21C215.154 190.26 214.888 190.309 214.623 190.356C214.889 190.349 215.156 190.342 215.423 190.334C217.21 190.283 219.01 190.213 220.82 190.123C221.003 190.114 221.184 190.105 221.365 190.096C223.948 189.963 226.548 189.79 229.154 189.574C230.216 189.486 231.28 189.39 232.343 189.288C257.049 186.906 281.848 180.552 296.679 167.49C294.595 165.709 290.476 164.604 286.231 163.99C273.958 162.216 252.913 159.742 229.692 157.016Z" fill="#E8A16B"/>
<path fill-rule="evenodd" clip-rule="evenodd" d="M123.747 157.861C124.786 153.364 126.082 148.556 127.622 143.661C124.513 143.092 121.894 142.551 119.859 142.042C109.588 139.478 86.5408 134.003 77.2153 134.185C65.2708 134.417 111.103 160.037 114.935 161.306C111.516 158.484 108.262 155.007 105.508 150.724C112.967 155.43 118.899 158.339 123.853 160.139C123.784 159.751 123.726 159.351 123.683 158.939L123.625 158.395L123.747 157.861Z" fill="#E8A16B"/>
<path fill-rule="evenodd" clip-rule="evenodd" d="M210.454 244.33L209.811 240.326L209.53 241.121C205.68 252.035 203.27 253.344 196.187 262.07L195.345 263.108L192.009 267.215L187.48 272.794L187.449 272.834L187.575 272.814L192.999 271.927L194.966 271.605C196.306 269.5 210.615 249.982 210.454 244.33Z" fill="white"/>
<path fill-rule="evenodd" clip-rule="evenodd" d="M155.404 288.692L150.073 297.363L159.015 323.752L165.723 295.101L161.08 286.431L155.404 288.692Z" fill="#E8A16B"/>
<path fill-rule="evenodd" clip-rule="evenodd" d="M195.663 288.693L200.994 297.363L192.051 323.752L185.344 295.101L189.988 286.431L195.663 288.693Z" fill="#E8A16B"/>
<path fill-rule="evenodd" clip-rule="evenodd" d="M156.965 273.893C151.825 266.18 142.217 252.974 140.711 244.142L140.374 241.027L141.247 244.019C144.252 253.976 152.496 264.271 158.524 272.825C158.819 273.255 158.71 273.843 158.279 274.139C157.849 274.434 157.261 274.324 156.965 273.893Z" fill="#1E2133"/>
<path fill-rule="evenodd" clip-rule="evenodd" d="M194.465 273.893C199.605 266.18 209.214 252.974 210.717 244.142L211.056 241.027L210.183 244.019C207.177 253.976 198.934 264.271 192.906 272.825C192.612 273.255 192.721 273.843 193.151 274.139C193.582 274.434 194.17 274.324 194.465 273.893Z" fill="#1E2133"/>
<path fill-rule="evenodd" clip-rule="evenodd" d="M127.203 257.517C142.568 307.991 158.24 358.628 173.1 409.238C173.633 411.054 175.16 415.847 175.486 417.737C174.695 415.988 173.264 411.168 172.685 409.366C156.539 359.153 141.048 308.458 125.396 258.071C125.242 257.572 125.523 257.044 126.022 256.89C126.521 256.737 127.049 257.017 127.203 257.517Z" fill="#1E2133"/>
<path fill-rule="evenodd" clip-rule="evenodd" d="M223.769 257.517C208.403 307.991 192.732 358.628 177.872 409.239C177.339 411.054 175.813 415.847 175.486 417.737C176.279 415.988 177.708 411.168 178.286 409.366C194.433 359.153 209.923 308.458 225.575 258.071C225.728 257.572 225.449 257.044 224.95 256.891C224.452 256.737 223.923 257.017 223.769 257.517Z" fill="#1E2133"/>
<path fill-rule="evenodd" clip-rule="evenodd" d="M143.44 208.52C138.627 205.991 134.912 202.526 133.963 196.86C133.963 196.86 133.868 196.081 134.058 196.101C134.072 196.118 134.069 196.112 134.075 196.136C135.627 201.591 139.043 204.842 144.024 207.157C144.401 207.318 144.575 207.754 144.414 208.13C144.253 208.507 143.817 208.682 143.44 208.52Z" fill="white"/>
<path fill-rule="evenodd" clip-rule="evenodd" d="M186.952 295.158C190.864 334.88 189.065 315.003 192.347 354.789C186.915 315.24 189.473 335.034 184.669 295.409C184.599 294.778 185.055 294.212 185.685 294.143C186.317 294.072 186.883 294.527 186.952 295.158Z" fill="#1E2133"/>
</g>
</g>
<rect x="31.5" y="41.5" width="297" height="428" rx="13.5" stroke="white" stroke-width="3"/>
</g>
</g>
<defs>
<filter id="filter0_d_8_29271" x="0" y="0" width="360" height="491" filterUnits="userSpaceOnUse" color-interpolation-filters="sRGB">
<feFlood flood-opacity="0" result="BackgroundImageFix"/>
<feColorMatrix in="SourceAlpha" type="matrix" values="0 0 0 0 0 0 0 0 0 0 0 0 0 0 0 0 0 0 127 0" result="hardAlpha"/>
<feOffset dy="-10"/>
<feGaussianBlur stdDeviation="7.5"/>
<feComposite in2="hardAlpha" operator="out"/>
<feColorMatrix type="matrix" values="0 0 0 0 0 0 0 0 0 0 0 0 0 0 0 0 0 0 0.8 0"/>
<feBlend mode="normal" in2="BackgroundImageFix" result="effect1_dropShadow_8_29271"/>
<feBlend mode="normal" in="SourceGraphic" in2="effect1_dropShadow_8_29271" result="shape"/>
</filter>
<filter id="filter1_d_8_29271" x="37" y="80" width="285.839" height="371.62" filterUnits="userSpaceOnUse" color-interpolation-filters="sRGB">
<feFlood flood-opacity="0" result="BackgroundImageFix"/>
<feColorMatrix in="SourceAlpha" type="matrix" values="0 0 0 0 0 0 0 0 0 0 0 0 0 0 0 0 0 0 127 0" result="hardAlpha"/>
<feOffset dy="10"/>
<feGaussianBlur stdDeviation="7.5"/>
<feComposite in2="hardAlpha" operator="out"/>
<feColorMatrix type="matrix" values="0 0 0 0 0 0 0 0 0 0 0 0 0 0 0 0 0 0 0.8 0"/>
<feBlend mode="normal" in2="BackgroundImageFix" result="effect1_dropShadow_8_29271"/>
<feBlend mode="normal" in="SourceGraphic" in2="effect1_dropShadow_8_29271" result="shape"/>
</filter>
<clipPath id="clip0_8_29271">
<rect x="15" y="25" width="330" height="461" rx="15" fill="white"/>
</clipPath>
<clipPath id="clip1_8_29271">
<rect x="30" y="40" width="300" height="431" rx="15" fill="white"/>
</clipPath>
</defs>
</svg>
