<svg width="182" height="98" viewBox="0 0 182 98" fill="none" xmlns="http://www.w3.org/2000/svg">
<path d="M53.1254 15.57C52.886 15.3592 52.6751 15.114 52.4518 14.9022C32.7531 13.8447 22.3695 22.5037 12.2416 40.3884C0.823559 60.5671 13.5215 97.0827 41.206 97.0827C81.5222 97.0827 87.3093 52.2751 84.6996 45.0076C72.1506 36.9169 64.2825 25.6422 53.1254 15.57Z" fill="#FFB800"/>
<path d="M44.1827 0C37.7002 0.111775 31.3228 0.667769 25.5141 2.82627C15.5638 6.51077 8.51401 15.6588 1.31244 23.5497L0.823608 24.6404L100.565 63.3042V45.9201L44.1827 0Z" fill="black"/>
<path d="M63.8598 76.6153C63.8598 83.9603 57.9554 89.9036 50.6934 89.9036C43.4155 89.9036 37.5224 83.9603 37.5224 76.6153C37.5224 69.2806 43.4155 63.3043 50.6934 63.3043C57.9551 63.3043 63.8598 69.2806 63.8598 76.6153Z" fill="black"/>
<path d="M135.717 15.5698C135.972 15.3589 136.173 15.1138 136.391 14.902C156.095 13.8444 166.473 22.5034 176.595 40.3881C188.03 60.5669 175.332 97.0825 147.642 97.0825C107.332 97.0825 101.539 52.2749 104.159 45.0073C116.691 36.9166 124.56 25.642 135.717 15.5698Z" fill="#FFB800"/>
<path d="M170.017 11.5186C162.878 4.4859 153.435 2.55983 143.936 0.600651L88.294 45.9201V63.3042L181.581 27.1443C178.321 21.3685 174.503 15.9368 170.017 11.5186Z" fill="black"/>
<path d="M124.988 76.6151C124.988 83.9601 130.887 89.9033 138.159 89.9033C145.433 89.9033 151.326 83.9601 151.326 76.6151C151.326 69.2804 145.433 63.304 138.159 63.304C130.887 63.304 124.988 69.2804 124.988 76.6151Z" fill="black"/>
</svg>
