<svg width="200" height="52" viewBox="0 0 200 52" fill="none" xmlns="http://www.w3.org/2000/svg">
<path d="M15.6445 36.9482C17.3535 37.1989 18.7777 36.971 19.917 36.2646C21.0791 35.5583 21.9336 34.6012 22.4805 33.3936C23.0501 32.1859 23.3691 30.8301 23.4375 29.3262C23.5059 27.7995 23.3805 26.3298 23.0615 24.917H72.7588V35H32.3584C31.7887 37.6204 30.695 39.8079 29.0771 41.5625C27.4821 43.3398 25.5794 44.6729 23.3691 45.5615C21.1589 46.4502 18.7891 46.8945 16.2598 46.8945C13.7305 46.8945 11.3037 46.4046 8.97949 45.4248C6.65527 44.445 4.74121 42.9411 3.2373 40.9131C1.75618 38.8851 0.799154 36.5837 0.366211 34.0088C-0.0439453 31.4111 0.0927734 28.6768 0.776367 25.8057C1.48275 22.9346 2.86133 20.166 4.91211 17.5L12.8418 23.6523C11.7708 24.9284 11.0189 26.2842 10.5859 27.7197C10.1758 29.1553 10.0732 30.5339 10.2783 31.8555C10.4834 33.1543 11.0303 34.2708 11.9189 35.2051C12.8076 36.1393 14.0495 36.7204 15.6445 36.9482Z" fill="white"/>
<path d="M103.247 35C102.222 37.4837 100.729 39.7966 98.7695 41.9385C96.8099 44.0804 94.3604 45.9945 91.4209 47.6807C90.8968 47.111 90.3499 46.4844 89.7803 45.8008C89.2334 45.14 88.6637 44.4678 88.0713 43.7842C87.5016 43.1006 86.9434 42.4398 86.3965 41.8018C85.8724 41.1865 85.3939 40.6283 84.9609 40.127C86.2826 39.4661 87.513 38.7484 88.6523 37.9736C89.7917 37.1989 90.8285 36.2077 91.7627 35H82.0215C81.6569 34.4759 81.2467 33.4733 80.791 31.9922C80.3581 30.4883 80.1416 28.7565 80.1416 26.7969C80.1416 25.3158 80.3581 23.7549 80.791 22.1143C81.2467 20.4736 81.9873 18.9811 83.0127 17.6367C84.0381 16.2923 85.3597 15.1758 86.9775 14.2871C88.6182 13.3984 90.612 12.9541 92.959 12.9541C94.9186 12.9541 96.5934 13.3643 97.9834 14.1846C99.3962 15.0049 100.57 16.0303 101.504 17.2607C102.438 18.4912 103.156 19.8014 103.657 21.1914C104.181 22.5586 104.535 23.8005 104.717 24.917H107.007V35H103.247ZM95.4541 24.917C95.4541 24.0283 95.1009 23.2536 94.3945 22.5928C93.7109 21.9092 92.902 21.5674 91.9678 21.5674C91.1247 21.5674 90.3385 21.8978 89.6094 22.5586C88.903 23.1966 88.5498 23.9827 88.5498 24.917H95.4541Z" fill="white"/>
<path d="M146.963 24.917V35H107.007C106.642 35 106.278 34.8975 105.913 34.6924C105.526 34.4873 105.332 34.305 105.332 34.1455V25.7031C105.332 25.4525 105.549 25.2588 105.981 25.1221C106.392 24.9854 106.733 24.917 107.007 24.917H146.963Z" fill="white"/>
<path d="M162.891 35C155.576 35 151.919 31.7301 151.919 25.1904V0.615234H162.002V21.499C162.002 22.1826 162.184 22.9232 162.549 23.7207C162.936 24.5182 163.734 24.917 164.941 24.917H165.83V35H162.891Z" fill="white"/>
<path d="M181.963 24.917C181.917 23.6637 181.61 22.6611 181.04 21.9092C180.767 21.5446 180.368 21.2256 179.844 20.9521C179.342 20.6559 178.761 20.5078 178.101 20.5078H169.351V10.835H180.767C182.453 10.835 184.116 11.2337 185.757 12.0312C187.42 12.8288 188.742 13.877 189.722 15.1758C190.291 15.8822 190.758 16.6683 191.123 17.5342C191.51 18.4001 191.795 19.3913 191.978 20.5078C192.069 21.2142 192.194 21.8522 192.354 22.4219C192.513 22.9688 192.786 23.4245 193.174 23.7891C193.766 24.541 195.042 24.917 197.002 24.917H199.668V35H165.796C165.431 35 165.067 34.8975 164.702 34.6924C164.315 34.4873 164.121 34.305 164.121 34.1455V25.7031C164.121 25.4525 164.338 25.2588 164.771 25.1221C165.181 24.9854 165.522 24.917 165.796 24.917H181.963Z" fill="white"/>
<path d="M176.562 49.4238C177.747 50.5859 179.194 51.167 180.903 51.167C182.59 51.167 184.014 50.5859 185.176 49.4238C186.338 48.2617 186.919 46.8148 186.919 45.083C186.919 43.3968 186.338 41.9727 185.176 40.8105C184.014 39.6484 182.59 39.0674 180.903 39.0674C179.194 39.0674 177.747 39.6484 176.562 40.8105C175.4 41.9727 174.819 43.3968 174.819 45.083C174.819 46.8148 175.4 48.2617 176.562 49.4238Z" fill="#FFB800"/>
</svg>
