<svg width="430" height="376" viewBox="0 0 430 376" fill="none" xmlns="http://www.w3.org/2000/svg">
<path d="M626 442V111.102C599.722 106.878 453.136 85.3558 194.606 85.3558C-31.8066 85.3558 -171.667 107.071 -196 111.16V441.999L626 442Z" fill="black"/>
<path d="M323.064 99.968C321.675 94.2116 320.18 89.0673 320.644 82.9117C323.074 85.1905 321.899 93.7261 325.511 93.7613C326.783 88.3207 325.205 82.2969 326.566 76.8791C328.339 82.4394 327.76 90.325 333.548 94.5624C333.898 90.1174 332.049 82.4957 334.545 78.9522C334.93 81.9803 335.6 85.997 337.595 88.4323C337.606 86.5449 338.08 84.5784 339.571 83.3734C339.849 84.2459 341.021 85.6857 341.208 86.4376C343.5 83.7305 342.942 77.1008 344.111 73.5573C345.41 69.6241 346.637 63.2161 349.161 60.0947C349.665 63.0489 342.473 86.7331 349.412 85.1878C352.212 84.5643 354.875 76.4631 355.31 74.544C356.362 69.8967 355.604 64.8713 355.915 60.0991C361.046 64.5995 360.587 73.9188 360.943 80.1668C364.611 80.0744 362.925 75.5195 366.841 75.9144C366.816 77.2592 367.706 77.7182 367.938 78.5362C368.513 77.3348 369.389 76.1878 370.571 75.1263C370.771 75.7102 371.245 76.4183 371.465 77.0348C371.314 71.3972 376.49 64.29 381.054 60.217C381.201 65.7825 378.108 70.2864 377.981 76.1351C378.763 74.5555 380.201 72.9786 382.036 72.3005C383.573 73.7649 383.241 75.5309 385.048 76.7816C386.081 75.8669 387.042 74.8247 387.166 73.2864C390.612 72.9988 390.384 76.7948 393.545 77.0876C393.789 75.1061 395.301 74.0762 397.577 74.4596C400.333 68.7297 399.305 61.5881 399.782 55.2742C403.333 60.1695 403.144 75.1333 410.151 76.2336C410.532 74.9222 411.231 73.749 411.348 72.4174C413.97 71.1043 415.815 72.414 415.899 74.9073C417.666 74.6655 418.374 74.6048 419.325 73.1659C421.211 76.9443 423.112 74.3936 424.745 71.9381C424.932 73.0339 425.8 74.1729 425.978 75.3461C426.18 75.3118 427.097 75.325 427.318 75.3461C428.558 68.749 430.882 59.0824 435.607 53.6392C436.448 58.4492 435.034 75.8484 440.508 77.9873C441.68 76.7877 443.545 72.4764 445.525 72.3234C449.468 72.0208 447.322 77.5186 449.096 78.9715C454.974 75.8563 452.317 65.7051 452.707 60.6444C456.786 66.1386 458.493 71.3867 457.22 77.9759C464.739 77.7851 462.387 63.07 461.139 59.3409C462.292 63.3268 466.111 65.3937 466.832 69.713C467.357 72.8431 465.718 80.5274 468.636 82.384C469.761 80.5159 470.654 73.7376 474.168 75.9398C475.672 76.8844 474.458 87.2256 479.725 83.6557C480.078 83.4156 480.909 78.6074 481.463 77.6936C482.28 76.3471 483.447 75.0982 484.729 73.9874C487.209 71.8414 491.86 68.4553 495.375 68.4632C495.779 71.2627 492.092 74.9399 490.803 77.5089C489.025 81.0498 487.775 84.5827 488.87 88.4174C490.653 85.8554 494.799 79.508 498.4 79.4289C498.558 82.7314 495.306 85.172 495.527 88.9433C498.578 89.1738 500.412 85.6408 503.967 85.2476C501.97 87.2424 502.457 89.9785 502.584 92.4517C503.722 92.2309 505.326 92.8052 506.465 92.5818C506.764 97.7392 506.397 103.369 505.029 108.307C502.151 118.68 479.832 114.07 470.752 117.078L323.064 99.968Z" fill="black"/>
<path d="M6.29567 117.245C4.19451 111.708 2.06172 106.794 1.74976 100.628C4.44322 102.583 4.35444 111.198 7.94339 110.778C8.52075 105.22 6.19556 99.4448 6.86519 93.8996C9.32051 99.1898 9.73967 107.087 16.0151 110.563C15.8033 106.108 13.0122 98.7773 15.0431 94.9497C15.8032 97.9048 16.9746 101.805 19.2621 103.969C19.0354 102.095 19.2586 100.084 20.5855 98.6981C20.9687 99.5327 22.315 100.814 22.5945 101.536C24.5278 98.5592 23.1402 92.0517 23.8556 88.393C24.6482 84.3253 25.0595 77.8151 27.1703 74.4018C28.0421 77.2698 23.888 101.669 30.5756 99.2618C33.2734 98.2909 34.8983 89.918 35.089 87.9602C35.5495 83.2162 34.1637 78.3253 33.871 73.5514C39.5269 77.3693 40.2457 86.6718 41.3837 92.8292C45.0078 92.2716 42.7634 87.9646 46.6995 87.8679C46.8454 89.2039 47.7831 89.5451 48.117 90.3279C48.5362 89.064 49.2611 87.8152 50.2989 86.6155C50.5714 87.167 51.1321 87.8099 51.4282 88.393C50.5696 82.8178 54.8089 75.1178 58.8258 70.5004C59.6712 76.0078 57.1702 80.8609 57.7801 86.6797C58.3557 85.0148 59.5842 83.2699 61.3189 82.3649C63.0273 83.6234 62.92 85.4176 64.8718 86.4307C65.784 85.3956 66.603 84.2391 66.5336 82.6955C69.916 81.9796 70.1674 85.773 73.3389 85.6674C73.331 83.6665 74.7019 82.4598 77.0087 82.5504C79.0246 76.5179 77.1053 69.5662 76.7819 63.2391C80.9236 67.6524 82.6171 82.517 89.7071 82.7264C89.9206 81.3772 90.4664 80.1265 90.4154 78.7914C92.8487 77.1573 94.8436 78.2268 95.2417 80.6841C96.965 80.2268 97.6584 80.0755 98.4229 78.5302C100.768 82.0386 102.334 79.2672 103.642 76.6261C103.969 77.6912 104.971 78.7123 105.296 79.8512C105.492 79.7932 106.402 79.6911 106.625 79.6832C107.027 72.984 108.116 63.1002 112.118 57.1072C113.558 61.773 114.344 79.2092 120.043 80.6428C121.054 79.3051 122.363 74.7897 124.307 74.3912C128.18 73.5935 126.742 79.3199 128.686 80.5363C134.127 76.7052 130.212 66.9717 129.962 61.9014C134.702 66.8336 137.054 71.831 136.62 78.5267C144.055 77.3913 139.871 63.0879 138.164 59.5443C139.81 63.3552 143.859 64.9251 145.119 69.1195C146.03 72.1573 145.372 79.9866 148.503 81.4598C149.381 79.4651 149.417 72.6296 153.176 74.3719C154.789 75.1204 154.885 85.5337 159.659 81.3244C159.982 81.0447 160.2 76.1705 160.635 75.1916C161.276 73.7536 162.279 72.3649 163.41 71.1054C165.6 68.6631 169.786 64.7159 173.277 64.284C174.028 67.0079 170.835 71.123 169.878 73.8319C168.562 77.5689 167.763 81.2302 169.334 84.8969C170.779 82.1335 174.092 75.313 177.657 74.78C178.229 78.0368 175.31 80.8635 176.003 84.5777C179.057 84.4229 180.435 80.6859 183.912 79.8504C182.181 82.0817 183.009 84.7325 183.445 87.1696C184.545 86.809 186.209 87.1731 187.311 86.8125C188.256 91.889 188.6 97.5248 187.862 102.591C186.314 113.248 163.593 111.483 154.962 115.609L6.29567 117.245Z" fill="black"/>
<path d="M-147.895 123.723C-149.998 118.187 -152.128 113.272 -152.44 107.105C-149.747 109.059 -149.836 117.673 -146.247 117.257C-145.669 111.696 -147.995 105.923 -147.325 100.378C-144.867 105.668 -144.45 113.563 -138.173 117.039C-138.387 112.588 -141.177 105.254 -139.147 101.43C-138.386 104.383 -137.216 108.285 -134.928 110.449C-135.155 108.571 -134.932 106.563 -133.605 105.178C-133.222 106.013 -131.876 107.291 -131.596 108.012C-129.662 105.038 -131.05 98.5301 -130.335 94.8705C-129.542 90.8028 -129.128 84.2909 -127.02 80.8784C-126.148 83.7465 -130.303 108.146 -123.613 105.737C-120.916 104.766 -119.292 96.3929 -119.103 94.436C-118.642 89.6937 -120.027 84.8011 -120.318 80.0289C-114.662 83.8451 -113.944 93.151 -112.806 99.3067C-109.18 98.75 -111.424 94.4439 -107.49 94.3454C-107.345 95.6787 -106.406 96.0226 -106.072 96.8054C-105.653 95.5415 -104.928 94.2927 -103.89 93.093C-103.619 93.6427 -103.056 94.2865 -102.761 94.8705C-103.62 89.2971 -99.3805 81.5935 -95.3636 76.9779C-94.5156 82.4845 -97.0192 87.3402 -96.4093 93.1573C-95.8337 91.4932 -94.6026 89.7474 -92.8696 88.8424C-91.1595 90.1027 -91.2684 91.8952 -89.3166 92.9057C-88.4062 91.8723 -87.5855 90.7184 -87.6531 89.1731C-84.2725 88.4554 -84.0193 92.2487 -80.8478 92.1449C-80.8557 90.1441 -79.4866 88.9347 -77.1798 89.0262C-75.1639 82.9963 -77.0814 76.0438 -77.4048 69.7166C-73.2648 74.1282 -71.5723 88.9963 -64.484 89.2039C-64.267 87.8547 -63.7213 86.604 -63.774 85.2663C-61.3389 83.6339 -59.3458 84.7034 -58.9477 87.1634C-57.2244 86.7025 -56.531 86.5512 -55.7665 85.0059C-53.4201 88.516 -51.855 85.7448 -50.5474 83.1036C-50.2214 84.1669 -49.2187 85.1871 -48.8936 86.3287C-48.695 86.2698 -47.7854 86.1704 -47.5631 86.159C-47.1632 79.4633 -46.0735 69.5794 -42.0724 63.5829C-40.6321 68.2496 -39.8465 85.6867 -34.1476 87.1229C-33.1361 85.7817 -31.8276 81.2698 -29.8837 80.8696C-26.0083 80.0728 -27.4469 85.7985 -25.5048 87.0139C-20.0625 83.1828 -23.9775 73.4492 -24.2288 68.3789C-19.4904 73.3138 -17.137 78.3086 -17.5711 85.0042C-10.1357 83.8705 -14.3205 69.5672 -16.0271 66.0254C-14.3829 69.8337 -10.3326 71.4018 -9.07332 75.5961C-8.16203 78.634 -8.82019 86.4669 -5.68821 87.94C-4.81031 85.9435 -4.7743 79.1062 -1.01399 80.852C0.597695 81.5961 0.69434 92.0094 5.46789 87.8045C5.7904 87.5213 6.00841 82.6471 6.44429 81.67C7.08756 80.232 8.08845 78.8433 9.21945 77.5838C11.4094 75.1388 15.5977 71.1943 19.0864 70.7616C19.8378 73.488 16.6434 77.5987 15.6864 80.3111C14.3709 84.0446 13.572 87.7095 15.1433 91.3744C16.5889 88.6084 19.902 81.7888 23.4663 81.2558C24.0384 84.5153 21.1199 87.3428 21.815 91.0569C24.8671 90.9004 26.245 87.1652 29.7224 86.3279C27.9912 88.5592 28.8181 91.2118 29.2557 93.6489C30.3568 93.2865 32.0195 93.6507 33.1197 93.2901C34.067 98.3666 34.4089 104.001 33.6725 109.069C32.125 119.724 9.40225 117.964 0.77436 122.089L-147.895 123.723Z" fill="black"/>
<path d="M159.384 111.861C157.451 106.301 155.502 101.364 155.135 95.2073C157.532 97.1968 157.585 105.795 160.732 105.432C161.155 99.8942 159.026 94.0922 159.526 88.568C161.768 93.8881 162.257 101.774 167.826 105.34C167.571 100.889 165.006 93.5327 166.731 89.743C167.442 92.7034 168.531 96.6154 170.578 98.8116C170.349 96.9373 170.514 94.933 171.66 93.5706C172.009 94.4096 173.211 95.7069 173.47 96.4307C175.122 93.4914 173.802 86.9769 174.374 83.3305C175.009 79.2874 175.273 72.7967 177.076 69.4203C177.886 72.2936 174.606 96.5856 180.448 94.2839C182.805 93.3543 184.104 85.0244 184.239 83.0737C184.572 78.3472 183.279 73.444 182.95 68.6745C187.981 72.5715 188.755 81.8705 189.85 88.0297C193.028 87.5328 190.988 83.1986 194.446 83.1607C194.593 84.4949 195.424 84.8538 195.731 85.6392C196.077 84.3832 196.696 83.1476 197.591 81.9664C197.838 82.5205 198.339 83.1696 198.61 83.7571C197.77 78.1819 201.378 70.5592 204.838 66.0139C205.667 71.5205 203.544 76.3306 204.166 82.1458C204.647 80.4924 205.702 78.7694 207.213 77.8952C208.735 79.174 208.666 80.9655 210.396 82.0042C211.179 80.9875 211.883 79.8468 211.8 78.3033C214.762 77.6384 215.039 81.4299 217.827 81.3736C217.788 79.3789 218.973 78.1916 221.002 78.3209C222.681 72.3323 220.889 65.3613 220.508 59.043C224.214 63.5091 225.932 78.3737 232.168 78.6912C232.334 77.3482 232.793 76.1063 232.727 74.7712C234.843 73.1819 236.612 74.276 236.999 76.7377C238.505 76.3068 239.117 76.167 239.761 74.6331C241.879 78.1731 243.212 75.4325 244.322 72.8178C244.624 73.8855 245.521 74.9189 245.825 76.0596C245.996 76.0051 246.795 75.9163 246.989 75.9102C247.239 69.2339 248.046 59.3869 251.473 53.4644C252.809 58.1442 253.766 75.5593 258.796 77.0782C259.666 75.7554 260.746 71.2725 262.449 70.904C265.842 70.167 264.666 75.8592 266.391 77.1063C271.118 73.3614 267.525 63.5874 267.229 58.5258C271.469 63.5205 273.613 68.5426 273.336 75.2189C279.852 74.2022 275.956 59.861 274.401 56.2999C275.905 60.1257 279.49 61.7554 280.659 65.9577C281.508 69.0069 281.051 76.809 283.824 78.3314C284.567 76.3499 284.493 69.5276 287.824 71.3262C289.253 72.0966 289.497 82.4915 293.629 78.3675C293.909 78.0878 294.024 73.2276 294.392 72.2575C294.934 70.831 295.793 69.4634 296.769 68.2242C298.657 65.817 302.276 61.9445 305.336 61.5663C306.041 64.298 303.293 68.3525 302.495 71.0447C301.396 74.7535 300.75 78.3956 302.187 82.0781C303.414 79.3402 306.223 72.5865 309.349 72.109C309.9 75.3675 307.379 78.1468 308.043 81.8653C310.728 81.7563 311.879 78.0509 314.924 77.2672C313.436 79.4678 314.204 82.1264 314.625 84.5671C315.587 84.2232 317.057 84.6119 318.018 84.2689C318.927 89.3516 319.314 94.9787 318.744 100.024C317.547 110.636 297.551 108.527 290.027 112.513L159.384 111.861Z" fill="black"/>
<path d="M411.805 35.377C411.884 36.6408 412.869 37.5802 413.164 38.8247C412.019 37.7139 411.061 36.654 410.051 36.1342C407.563 37.3602 405.324 39.1492 403.529 41.5142C403.759 41.8352 404.116 42.1835 404.39 42.8422C403.581 42.7077 402.757 42.9803 403.165 43.8149C402.787 43.8114 402.402 43.8 402.03 43.8036C401.305 45.107 400.695 46.5397 400.224 48.1149C400.845 48.975 401.7 49.7393 402.13 50.5818C401.506 50.6742 400.564 50.3681 399.702 50.2151C399.256 52.3804 399.044 54.7586 399.128 57.3734C399.79 78.6328 400.321 95.5676 400.321 95.5676L441.866 94.2677C441.866 94.2677 441.24 74.208 440.676 56.0753C440.122 38.3937 423.826 30.8809 411.805 35.377Z" fill="black"/>
<path d="M9.20887 106.964C9.36554 108.582 10.4856 109.944 12.0427 110.41L20.0254 112.801C22.6893 113.598 25.3342 111.502 25.1656 108.726L19.4094 13.9649C19.2882 11.9701 17.7133 10.3708 15.7206 10.2189L4.46578 9.36144C1.98914 9.17274 -0.0588905 11.2632 0.180525 13.7354L9.20887 106.964Z" fill="black"/>
<path d="M42.366 57.6778C44.2796 57.6181 45.8825 56.2108 46.1895 54.321L47.4416 46.612C47.8311 44.2135 46.0098 42.0246 43.5804 41.9717L-17.8208 40.6335C-20.0539 40.5848 -21.8942 42.3744 -21.9079 44.6081L-21.9747 55.5348C-21.9885 57.8025 -20.1165 59.6281 -17.8499 59.5574L42.366 57.6778Z" fill="black"/>
<path d="M-7.71407 52.8899C-5.57007 63.8739 5.07492 71.0369 16.0589 68.8849C27.0399 66.7429 34.2029 56.099 32.0559 45.118C29.9089 34.137 19.2669 26.973 8.28294 29.118C-2.69806 31.264 -9.86107 41.9089 -7.71407 52.8899Z" fill="black"/>
</svg>
